<svg xmlns="http://www.w3.org/2000/svg" xmlns:xlink="http://www.w3.org/1999/xlink" x="0px" y="0px" viewBox="0 0 48 48" xml:space="preserve" baseProfile="basic"><line x1="24" x2="24" y1="5" y2="7" fill="none" stroke="#1574c0" stroke-linecap="round" stroke-miterlimit="10" stroke-width="2"/><ellipse cx="24" cy="3.5" fill="#1574c0" rx="1.5" ry="1.5"/><path fill="#2196f3" d="M37.6,16c2,0.6,3.4,2.4,3.4,4.5v16c0,2.7-2.2,4.8-4.8,4.8H12.4c-2.9,0-5.3-2.4-5.3-5.3V20.5 c0-2.1,1.4-3.9,3.4-4.5C11.8,16,37.6,16,37.6,16z"/><path fill="#fff" d="M17,24c0,1.1-0.9,2-2,2s-2-0.9-2-2s0.9-2,2-2S17,22.9,17,24z M29,22c-1.1,0-2,0.9-2,2s0.9,2,2,2 s2-0.9,2-2S30.1,22,29,22z M31,32H11v2c0,0.6,0.4,1,1,1h18c0.6,0,1-0.4,1-1V32z"/><path fill="#1574c0" d="M35,18H7c-1.7,0-3,1.3-3,3v0c0,1.7,1.3,3,3,3h28c1.7,0,3-1.3,3-3v0C38,19.3,36.7,18,35,18z"/><rect width="3" height="4" x="33" y="27" fill="#1574c0"/><rect width="3" height="4" x="6" y="27" fill="#1574c0"/></svg>